<svg xmlns="http://www.w3.org/2000/svg" width="13.363" height="13.099" viewBox="0 0 13.363 13.099">
  <g id="Group_2465" data-name="Group 2465" transform="translate(-216.224 -400.927)">
    <path id="Path_3215" data-name="Path 3215" d="M220.41,413.544l-3.908-4.872a1.052,1.052,0,0,1-.278-.694.893.893,0,0,1,.934-.913.915.915,0,0,1,.792.416l3.357,4.306,6.539-10.369a.925.925,0,0,1,1.742.414,1.227,1.227,0,0,1-.225.664l-7.09,11.041a1.057,1.057,0,0,1-.928.489A1.107,1.107,0,0,1,220.41,413.544Z" transform="translate(0 0)" fill="#fdfdfd"/>
  </g>
</svg>
